<?xml version="1.0" encoding="utf-8"?>
<!-- Generator: Adobe Illustrator 23.0.1, SVG Export Plug-In . SVG Version: 6.00 Build 0)  -->
<svg version="1.1" id="Camada_1" xmlns="http://www.w3.org/2000/svg" xmlns:xlink="http://www.w3.org/1999/xlink" x="0px" y="0px"
	 viewBox="0 0 595.3 841.9" style="enable-background:new 0 0 595.3 841.9;" xml:space="preserve">
<style type="text/css">
	.st0{fill:none;stroke:#006F32;}
</style>
<g id="Group_145" transform="translate(-310.47 -4129.5)">
	<path id="Union_4" class="st0" d="M828.4,4465.5l75.7,37.5c0.2,0.1,0.3,0.2,0.5,0.3h0.7v1c0,0.1,0.1,0.3,0.1,0.5v131.1
		c0-0.2,0-0.3-0.1-0.5v0.5H312.8c-1.1,0-2-0.9-1.9-2c0,0,0,0,0,0v-128.6c0-1.1,0.9-2,1.9-2h436.1l76.3-37.8
		C826.2,4465,827.4,4465,828.4,4465.5L828.4,4465.5z"/>
</g>
</svg>
