<svg xmlns="http://www.w3.org/2000/svg" width="100%" height="100%" viewBox="0 0 807.137 232.438">
  <defs>
    <style>
      .cls-1 {
        fill: none;
        stroke: #006f32;
      }
    </style>
  </defs>
  <g id="Group_145" data-name="Group 145" transform="translate(-310.47 -4129.5)">
    <path id="Union_4" data-name="Union 4" class="cls-1" d="M2233.313,7439.948l-102.624-50.842a3.922,3.922,0,0,1-.624-.381h-1v-1.36a2.121,2.121,0,0,1-.092-.614V7209a2.118,2.118,0,0,0,.092.614V7209h803.414a2.66,2.66,0,0,1,2.631,2.706v174.313a2.677,2.677,0,0,1-2.631,2.706H2341.123l-103.4,51.223a5.214,5.214,0,0,1-4.414,0Z" transform="translate(-1818 -3079)"/>
  </g>
</svg>
